<?xml version="1.0" encoding="utf-8"?>
<!-- Generator: Adobe Illustrator 25.0.0, SVG Export Plug-In . SVG Version: 6.00 Build 0)  -->
<svg version="1.1" id="Layer_1" xmlns="http://www.w3.org/2000/svg" xmlns:xlink="http://www.w3.org/1999/xlink" x="0px" y="0px"
	 viewBox="0 0 500 500" style="enable-background:new 0 0 500 500;" xml:space="preserve">
<style type="text/css">
	.st0{fill:#407BFF;}
	.st1{opacity:0.5;fill:#FFFFFF;enable-background:new    ;}
	.st2{fill:#FFFFFF;}
	.st3{fill:none;stroke:#263238;stroke-linecap:round;stroke-linejoin:round;}
	.st4{fill:#263238;}
	.st5{fill:#407BFF;stroke:#263238;stroke-miterlimit:10;}
	.st6{fill:none;stroke:#407BFF;stroke-linecap:round;stroke-linejoin:round;}
	.st7{fill:none;stroke:#263238;stroke-width:1.1775;stroke-linecap:round;stroke-linejoin:round;}
	.st8{opacity:0.4;fill:#FFFFFF;enable-background:new    ;}
	.st9{fill:none;stroke:#263238;stroke-miterlimit:10;}
	.st10{opacity:0.3;enable-background:new    ;}
	.st11{opacity:0.1;enable-background:new    ;}
	.st12{opacity:5.000000e-02;enable-background:new    ;}
	.st13{fill:#FFFFFF;stroke:#263238;stroke-linecap:round;stroke-linejoin:round;}
	.st14{opacity:0.8;fill:none;stroke:#FFFFFF;stroke-linecap:round;stroke-linejoin:round;enable-background:new    ;}
	.st15{opacity:0.7;fill:#FFFFFF;enable-background:new    ;}
	.st16{fill:none;stroke:#FFFFFF;stroke-linecap:round;stroke-linejoin:round;}
</style>
<g id="freepik--Shadow--inject-27">
	<ellipse class="st0" cx="286.1" cy="440.8" rx="208.7" ry="56.2"/>
	<ellipse class="st1" cx="286.1" cy="440.8" rx="208.7" ry="56.2"/>
</g>
<g id="freepik--Window--inject-27">
	<path class="st2" d="M66.2,35.9h245.3c5.8,0,10.4,4.7,10.4,10.4v137.5c0,5.8-4.7,10.4-10.4,10.4H66.2c-5.8,0-10.4-4.7-10.4-10.4
		V46.4C55.8,40.6,60.4,35.9,66.2,35.9z"/>
	<path class="st0" d="M321.9,46.4v4.1H55.8v-4.1c0-5.8,4.7-10.4,10.4-10.5h245.4C317.3,35.9,321.9,40.6,321.9,46.4
		C321.9,46.3,321.9,46.3,321.9,46.4z"/>
	<path class="st3" d="M66.2,35.9h245.3c5.8,0,10.4,4.7,10.4,10.4v137.5c0,5.8-4.7,10.4-10.4,10.4H66.2c-5.8,0-10.4-4.7-10.4-10.4
		V46.4C55.8,40.6,60.4,35.9,66.2,35.9z"/>
	<path class="st3" d="M321.9,46.4v4.1H55.8v-4.1c0-5.8,4.7-10.4,10.4-10.5h245.4C317.3,35.9,321.9,40.6,321.9,46.4
		C321.9,46.3,321.9,46.3,321.9,46.4z"/>
	<path class="st4" d="M85.7,43.2c0,1.5-1.2,2.7-2.7,2.7c-1.5,0-2.7-1.2-2.7-2.7c0-1.5,1.2-2.7,2.7-2.7c0,0,0,0,0,0
		C84.5,40.5,85.7,41.7,85.7,43.2z"/>
	<path class="st4" d="M99.6,43.2c0,1.5-1.2,2.7-2.7,2.7c-1.5,0-2.7-1.2-2.7-2.7c0-1.5,1.2-2.7,2.7-2.7c0,0,0,0,0,0
		C98.4,40.5,99.6,41.7,99.6,43.2z"/>
	<circle class="st4" cx="110.8" cy="43.2" r="2.7"/>
	<path class="st3" d="M75.8,62h75.2c2.4,0,4.3,1.9,4.3,4.3v36.2c0,2.4-1.9,4.3-4.3,4.3H75.8c-2.4,0-4.3-1.9-4.3-4.3V66.3
		C71.6,63.9,73.5,62,75.8,62z"/>
	<line class="st3" x1="76.5" y1="101.2" x2="149.2" y2="101.2"/>
	<rect x="81.9" y="92.6" class="st5" width="8.4" height="8.4"/>
	<rect x="94.2" y="81.5" class="st5" width="8.4" height="19.6"/>
	<rect x="108.1" y="84.9" class="st5" width="8.4" height="16.5"/>
	<rect x="122.7" y="68.5" class="st5" width="8.4" height="32.3"/>
	<rect x="137.3" y="68.7" class="st5" width="8.4" height="32.3"/>
	
		<ellipse transform="matrix(0.1602 -0.9871 0.9871 0.1602 133.3725 327.7888)" class="st5" cx="259.3" cy="85.5" rx="23.6" ry="23.6"/>
	<path class="st4" d="M261.3,100.2v2.4h-4v-2.4c-3.4-0.8-5.7-3.9-5.5-7.3v-1.1l4.5-0.5v1.2c0,2.2,1.2,3.6,3,3.6c1.5,0.1,2.9-1,3-2.5
		c0-0.1,0-0.3,0-0.4c0-2.2-2-4-4.4-6c-2.8-2.3-5.6-5.1-5.6-9c0-3.9,1.8-6.6,5-7.3v-2.4h4v2.4c3.2,0.8,5.1,3.5,5.1,7.4V79l-4.5,0.5
		v-0.8c0-2.3-0.9-3.6-2.5-3.6s-2.5,1-2.5,2.9c0,2.2,2.1,4,4.4,6c2.8,2.3,5.6,5.1,5.6,9C267,96.4,264.6,99.5,261.3,100.2z"/>
	<line class="st3" x1="69.6" y1="129.7" x2="76.5" y2="129.7"/>
	<line class="st3" x1="69.6" y1="143" x2="76.5" y2="143"/>
	<line class="st3" x1="69.6" y1="156.3" x2="76.5" y2="156.3"/>
	<line class="st3" x1="69.6" y1="169.6" x2="76.5" y2="169.6"/>
	<line class="st3" x1="91.7" y1="179.7" x2="91.7" y2="174.3"/>
	<line class="st3" x1="102.6" y1="179.7" x2="102.6" y2="174.3"/>
	<line class="st3" x1="113.5" y1="179.7" x2="113.5" y2="174.3"/>
	<line class="st3" x1="124.4" y1="179.7" x2="124.4" y2="174.3"/>
	<line class="st3" x1="135.3" y1="179.7" x2="135.3" y2="174.3"/>
	<line class="st3" x1="146.3" y1="179.7" x2="146.3" y2="174.3"/>
	<line class="st3" x1="157.2" y1="179.7" x2="157.2" y2="174.3"/>
	<line class="st3" x1="168.1" y1="179.7" x2="168.1" y2="174.3"/>
	<line class="st3" x1="179" y1="179.7" x2="179" y2="174.3"/>
	<line class="st3" x1="189.9" y1="179.7" x2="189.9" y2="174.3"/>
	<line class="st3" x1="200.8" y1="179.7" x2="200.8" y2="174.3"/>
	<line class="st3" x1="211.8" y1="179.7" x2="211.8" y2="174.3"/>
	<line class="st3" x1="222.7" y1="179.7" x2="222.7" y2="174.3"/>
	<line class="st3" x1="233.6" y1="179.7" x2="233.6" y2="174.3"/>
	<line class="st3" x1="244.5" y1="179.7" x2="244.5" y2="174.3"/>
	<line class="st3" x1="255" y1="179.7" x2="255" y2="174.3"/>
	<line class="st3" x1="265.5" y1="179.7" x2="265.5" y2="174.3"/>
	<line class="st3" x1="276" y1="179.7" x2="276" y2="174.3"/>
	<path class="st6" d="M303.8,121.5v51.7c0,3.5-3.6,6.4-8.1,6.4H77.7c-2.7,0.1-5.3-1.1-7-3.2c-0.7-0.9-1.1-2.1-1.2-3.3v-51.7
		c0-3.5,3.6-6.4,8.1-6.4h218.2C300.2,115.1,303.8,118,303.8,121.5z"/>
	<path class="st4" d="M237.4,21.3l-69.6,93.8L141.2,151l-29.1-18.5l-35.6,47.2H76c-2.3,0-4.4-1.2-5.5-3.2l40-53.1l29.1,18.5
		l19.9-26.8L232,17.4L237.4,21.3z"/>
	<polygon class="st4" points="219.8,22.5 245.3,7 238.3,33.8 233.8,21.4 	"/>
</g>
<g id="freepik--Floor--inject-27">
	<polyline class="st3" points="461.9,317.8 52.7,317.8 6.8,358.5 	"/>
	<line class="st3" x1="53" y1="289.2" x2="53" y2="209.9"/>
	<line class="st3" x1="53" y1="313.2" x2="53" y2="297.8"/>
	<g id="freepik--freepik--Plants--inject-120--inject-27">
		<path class="st0" d="M437.3,124.9c0,0,0-4.8-6.7-11.5c-6.7-6.7-11-10.5-11-10.5s-3.4,11,2.9,17.7c4.6,4.7,9.6,9.1,14.9,13V124.9z"
			/>
		<path class="st0" d="M427.5,154.8c0,0,0-4.8-6.7-11.5c-6.7-6.7-11-10.5-11-10.5s-3.4,11,2.9,17.7c4.6,4.7,9.6,9.1,14.9,13V154.8z"
			/>
		<path class="st0" d="M436.8,133c0,0,0.5-4.8,7.9-10.7c7.4-6,12.1-9.3,12.1-9.3s2.2,11.3-4.7,17.3c-5.1,4.2-10.5,8-16.1,11.3
			L436.8,133z"/>
		<path class="st0" d="M425.1,168.4c0,0,1-4.7,9-9.8c8-5.2,13-8,13-8s1,11.5-6.5,16.7c-5.5,3.7-11.2,6.8-17.2,9.5L425.1,168.4z"/>
		<path class="st0" d="M427.3,206.9c0,0,0-4.8,6.7-11.5c6.7-6.7,11-10.5,11-10.5s3.4,11-2.9,17.7c-4.6,4.7-9.5,9.1-14.8,13V206.9z"
			/>
		<path class="st0" d="M427.2,216.3c0,0,0.7-4.7-5-12.3s-9.4-12-9.4-12s-4.9,10.5,0.3,18c3.9,5.3,8.2,10.3,12.9,14.9L427.2,216.3z"
			/>
		<path class="st0" d="M420.6,244.2c0,0,0-4.8,6.7-11.5c6.7-6.7,11-10.5,11-10.5s3.4,11-2.9,17.7c-4.6,4.7-9.6,9.1-14.9,13V244.2z"
			/>
		<path class="st0" d="M425,269.5c0,0-1.2-4.7,3.6-12.8c4.8-8.1,8-13,8-13s6,9.8,1.7,17.9c-3.2,5.7-7,11.2-11.1,16.3L425,269.5z"/>
		<path class="st7" d="M437.9,123.7c-0.3,5-1,10-1.8,14.9c-2.7,13.7-9.3,22.5-11.9,34.9c-2.6,12.4,5,28.3,2.9,44.2
			c-2,15.9-8.2,24.7-6.5,35.3c1.7,10.6,11.1,39.3,11.1,39.3"/>
		<line class="st7" x1="436.8" y1="136.2" x2="444" y2="130.6"/>
		<line class="st7" x1="437.1" y1="129.8" x2="434.1" y2="124.4"/>
		<path class="st7" d="M424.5,172.9c0,0,6.1-4.5,12.3-9.1"/>
		<path class="st7" d="M427.5,163.4c0,0-5-9.9-10.8-16.5"/>
		<path class="st7" d="M427.5,213.7c3.5-6.4,7.8-12.2,13-17.3"/>
		<path class="st7" d="M426.4,220.4c-1.9-4.3-4.1-8.5-6.6-12.5c-3.5-5.2-4-5.9-4-5.9"/>
		<path class="st7" d="M420.6,253c1.5-3.8,3.4-7.5,5.5-11c2.1-3.3,4.5-6.4,7.1-9.3"/>
		<path class="st7" d="M427.2,277.8c-0.4-3.6,0.3-7.3,1.8-10.6c2.5-4.9,5.4-11.3,6.6-13.8"/>
		<path class="st0" d="M393.3,188.9c0,0-0.5-3,3-7.9s5.8-7.8,5.8-7.8s3.3,6.5,0.1,11.4c-2.4,3.5-5,6.7-7.9,9.7L393.3,188.9z"/>
		<path class="st0" d="M402.7,206.6c0,0-0.5-3,3-7.9c3.5-4.9,5.8-7.8,5.8-7.8s3.3,6.6,0.1,11.4c-2.4,3.5-5,6.7-7.9,9.7L402.7,206.6z
			"/>
		<path class="st0" d="M394.5,193.9c0,0-0.8-2.9-6.1-5.8c-5.3-2.9-8.6-4.5-8.6-4.5s-0.1,7.3,4.9,10.4c3.6,2.1,7.4,3.9,11.3,5.3
			L394.5,193.9z"/>
		<path class="st0" d="M405.7,214.8c0,0-1.2-2.8-6.7-5.2c-5.5-2.4-9-3.6-9-3.6s0.6,7.3,5.9,9.8c3.8,1.7,7.8,3.1,11.8,4.1
			L405.7,214.8z"/>
		<path class="st0" d="M408.5,239.2c0,0-0.5-3-5.5-6.5c-4.9-3.5-8.1-5.4-8.1-5.4s-0.9,7.3,3.7,10.8c3.4,2.5,7,4.6,10.7,6.5
			L408.5,239.2z"/>
		<path class="st0" d="M409.6,245.1c0,0-0.9-2.9,1.8-8.3s4.7-8.6,4.7-8.6s4.2,6,1.7,11.3c-1.9,3.8-4,7.4-6.5,10.8L409.6,245.1z"/>
		<path class="st0" d="M418,269.4c0,0,0.3-3,5.1-6.8c4.7-3.8,7.7-5.8,7.7-5.8s1.3,7.2-3.1,11c-3.2,2.6-6.7,5-10.3,7.1L418,269.4z"/>
		<path class="st0" d="M416.8,261.9c0,0-0.5-3-5.5-6.5c-4.9-3.5-8.1-5.4-8.1-5.4s-0.9,7.3,3.7,10.8c3.4,2.5,7,4.6,10.7,6.5
			L416.8,261.9z"/>
		<path class="st0" d="M416.7,278.2c0,0,0.3-3-3.6-7.7c-3.9-4.6-6.4-7.3-6.4-7.3s-2.7,6.8,0.9,11.4c2.7,3.2,5.6,6.3,8.7,9
			L416.7,278.2z"/>
		<path class="st7" d="M392.8,188.2c0.8,3.1,1.7,6.1,2.8,9.1c3.1,8.3,8.3,13.1,11.3,20.6s0,18.3,3,28c3,9.7,7.9,14.6,7.9,21.5
			s-2.6,25.9-2.6,25.9"/>
		<line class="st7" x1="394.9" y1="195.9" x2="389.7" y2="193.2"/>
		<line class="st7" x1="394" y1="192" x2="395.3" y2="188.3"/>
		<path class="st7" d="M406.6,217.6c0,0-4.3-2.2-8.7-4.4"/>
		<path class="st7" d="M403.6,212c1.3-4,2.9-7.8,5-11.5"/>
		<path class="st7" d="M409.1,243.5c-2.9-3.6-6.2-6.8-10-9.4"/>
		<path class="st7" d="M410.6,247.6c0.7-2.9,1.6-5.8,2.8-8.5c1.6-3.7,1.9-4.1,1.9-4.1"/>
		<path class="st7" d="M417.5,272.6c1.7-2.1,3.5-4,5.5-5.7c1.3-0.9,2.5-2,3.6-3.1"/>
		<path class="st7" d="M417.7,267.4c-1.4-2.2-2.9-4.3-4.7-6.3c-1.7-1.8-3.5-3.5-5.4-5"/>
		<path class="st7" d="M416.3,283.7c-0.2-2.3-1-4.6-2.3-6.5c-2.1-2.8-4.7-6.5-5.6-7.9"/>
		<path class="st4" d="M438.6,326H408c-1.3,0-2.3-1-2.3-2.3l-4.4-33.8h43.9l-4.4,33.8C440.8,325,439.8,326,438.6,326z"/>
		<path class="st4" d="M444.8,295.7h-43.5c-1.9,0-3.4-1.5-3.4-3.4l0,0c0-1.9,1.5-3.4,3.4-3.4h43.5c1.9,0,3.4,1.5,3.4,3.4
			c0,0,0,0,0,0l0,0C448.3,294.2,446.7,295.7,444.8,295.7C444.8,295.7,444.8,295.7,444.8,295.7z"/>
	</g>
</g>
<g id="freepik--Coins--inject-27">
	<path class="st0" d="M346.8,160.4c0,19.7-13.6,36.7-32.7,41.2h-0.1c-1.1,0.2-2.2,0.5-3.4,0.6c-2,0.3-4,0.4-6,0.4
		c-23.3-0.1-42.2-19.1-42.1-42.4c0.1-22.6,17.9-41.1,40.5-42.1c0.4,0,0.8,0,1.2,0c0.1,0,0.2,0,0.4,0c0.1,0,0.3,0,0.4,0
		c5.7,0,11.3,1.2,16.5,3.5C336.9,128.5,346.8,143.7,346.8,160.4z"/>
	<path class="st8" d="M321.5,121.8c-48.8-2.5-49,51.6-49,51.6s-7.4-17.7,4.7-37.2c6.8-10.9,18.6-15.8,27.8-17.9
		C310.7,118.3,316.3,119.5,321.5,121.8z"/>
	<path class="st3" d="M346.8,160.4c0,19.7-13.6,36.8-32.9,41.2c-3.1,0.7-6.2,1.1-9.4,1.1c-23.3,0.4-42.6-18.1-43-41.5
		c-0.4-23.3,18.1-42.6,41.5-43c0.5,0,1,0,1.6,0C327.9,118.2,346.8,137.1,346.8,160.4z"/>
	<path class="st3" d="M346.8,160.4c0,19.7-13.6,36.8-32.9,41.2c-0.5,0-1,0-1.6,0c-23.3-0.1-42.2-19-42.1-42.4
		c0.1-19.6,13.6-36.7,32.8-41.1c0.5,0,1,0,1.6,0C327.9,118.2,346.8,137.1,346.8,160.4z"/>
	<path class="st9" d="M319.1,186.8l1.1,4.5l-7.3,1.8l-1.1-4.5c-6.5,0-11.8-4.2-13.5-11.1l-0.5-2l8.1-2.9l0.5,2.1
		c1,4.1,3.7,6.1,7.2,5.3c2.9-0.4,4.8-3.1,4.4-6c0-0.3-0.1-0.5-0.2-0.8c-1-4-5.5-6.5-10.8-9c-6.2-3-12.7-6.9-14.5-14.1
		c-1.7-7.1,0.4-12.9,6-15.8l-1.1-4.5l7.3-1.8l1.1,4.5c6.3-0.1,11.1,4.1,12.8,11.3l0.4,1.5l-8.1,2.9l-0.4-1.6
		c-1.1-4.4-3.3-6.2-6.3-5.5c-3,0.7-4.2,3-3.4,6.6c1,4,5.6,6.4,10.8,9.1c6.2,3.1,12.7,6.9,14.5,14.1
		C327.8,177.7,325,183.9,319.1,186.8z"/>
	<path class="st10" d="M319.1,186.8l1.1,4.5l-7.3,1.8l-1.1-4.5c-6.5,0-11.8-4.2-13.5-11.1l-0.5-2l8.1-2.9l0.5,2.1
		c1,4.1,3.7,6.1,7.2,5.3c2.9-0.4,4.8-3.1,4.4-6c0-0.3-0.1-0.5-0.2-0.8c-1-4-5.5-6.5-10.8-9c-6.2-3-12.7-6.9-14.5-14.1
		c-1.7-7.1,0.4-12.9,6-15.8l-1.1-4.5l7.3-1.8l1.1,4.5c6.3-0.1,11.1,4.1,12.8,11.3l0.4,1.5l-8.1,2.9l-0.4-1.6
		c-1.1-4.4-3.3-6.2-6.3-5.5c-3,0.7-4.2,3-3.4,6.6c1,4,5.6,6.4,10.8,9.1c6.2,3.1,12.7,6.9,14.5,14.1
		C327.8,177.7,325,183.9,319.1,186.8z"/>
	<line class="st3" x1="283" y1="196.8" x2="291.9" y2="196.4"/>
	<line class="st3" x1="278.7" y1="193.8" x2="286.4" y2="193.1"/>
	<line class="st3" x1="275.2" y1="190.7" x2="283" y2="190"/>
	<line class="st3" x1="274.1" y1="131.1" x2="280.8" y2="131.1"/>
	<line class="st3" x1="277.4" y1="128.1" x2="284" y2="127.8"/>
	<line class="st3" x1="281.6" y1="125" x2="288.6" y2="124.3"/>
	<path class="st10" d="M314.1,201.6h-0.1c-3.1,0.7-6.2,1.1-9.4,1.1c-23.3-0.1-42.2-19.1-42.1-42.4c0.1-22.6,17.9-41.1,40.5-42.1
		c0.4,0,0.8,0,1.2,0c-10.3,3.2-27.6,11.5-32.2,28.8C265.4,171.6,280.1,199.5,314.1,201.6z"/>
	<path class="st11" d="M346.8,160.4c0,19.7-13.6,36.7-32.7,41.2h-0.1c-1.1,0.2-2.2,0.5-3.4,0.6l10.9-80.5
		C336.9,128.5,346.8,143.7,346.8,160.4z"/>
	<path class="st0" d="M370.8,93.9c-6.9,9.7-19.6,13.4-30.6,8.9l-0.2-0.1c-0.8-0.3-1.6-0.7-2.3-1.2c-0.9-0.5-1.7-1-2.5-1.5
		c-11.2-8.6-13.4-24.6-4.8-35.9c7.8-10.2,21.8-13,33-6.7l0.6,0.4c0.3,0.2,0.5,0.3,0.8,0.5s0.8,0.6,1.2,0.9
		C376.4,67.7,378.6,82.9,370.8,93.9z"/>
	<path class="st8" d="M332.2,94.3c0,0-4.2-12.3,1.4-21.4c7-11.3,17.7-16.5,32.2-13.7c0,0-7.9-5.3-21.1-1.5
		C331.5,61.4,324.4,79.6,332.2,94.3z"/>
	<path class="st3" d="M370.8,93.9c-6.9,9.7-19.6,13.4-30.6,8.9c-1.8-0.7-3.4-1.6-5-2.7c-11.2-8.6-13.3-24.7-4.7-35.9
		c7.9-10.3,22.3-13.1,33.5-6.4c0.3,0.2,0.5,0.3,0.8,0.5C376.2,66.5,378.9,82.4,370.8,93.9z"/>
	<path class="st3" d="M370.8,93.9c-6.9,9.7-19.6,13.4-30.6,8.9l-0.8-0.5c-11.4-8.3-14-24.3-5.7-35.7c6.9-9.5,19.3-13.1,30.2-8.7
		c0.3,0.2,0.5,0.3,0.8,0.5C376.2,66.5,378.9,82.4,370.8,93.9z"/>
	<path class="st9" d="M347.9,97.3l-1,2.6l-4.2-1.7l1-2.6c-3.2-2.3-4.4-6.5-2.8-10.2l0.5-1.2l5,1.4l-0.5,1.2
		c-0.9,2.4-0.3,4.3,1.7,5.1c1.6,0.8,3.5,0.1,4.2-1.4c0.1-0.2,0.1-0.3,0.2-0.5c0.9-2.3-0.5-5.1-2.2-8.2c-2-3.7-3.9-7.8-2.2-12
		c1.6-4.2,4.7-6.2,8.5-5.7l1-2.6l4.2,1.7l-1,2.6c3.2,2.2,4,5.8,2.4,10.1l-0.3,0.8l-5-1.4l0.4-0.9c1-2.5,0.5-4.2-1.2-4.9
		c-1.7-0.7-3.2,0-4,2.1c-0.9,2.3,0.5,5.1,2.2,8.2c2,3.7,3.9,7.8,2.2,12C355.7,95.6,351.8,98,347.9,97.3z"/>
	<path class="st10" d="M347.9,97.3l-1,2.6l-4.2-1.7l1-2.6c-3.2-2.3-4.4-6.5-2.8-10.2l0.5-1.2l5,1.4l-0.5,1.2
		c-0.9,2.4-0.3,4.3,1.7,5.1c1.6,0.8,3.5,0.1,4.2-1.4c0.1-0.2,0.1-0.3,0.2-0.5c0.9-2.3-0.5-5.1-2.2-8.2c-2-3.7-3.9-7.8-2.2-12
		c1.6-4.2,4.7-6.2,8.5-5.7l1-2.6l4.2,1.7l-1,2.6c3.2,2.2,4,5.8,2.4,10.1l-0.3,0.8l-5-1.4l0.4-0.9c1-2.5,0.5-4.2-1.2-4.9
		c-1.7-0.7-3.2,0-4,2.1c-0.9,2.3,0.5,5.1,2.2,8.2c2,3.7,3.9,7.8,2.2,12C355.7,95.6,351.8,98,347.9,97.3z"/>
	<path class="st10" d="M363.3,57.5c-7-1.2-15.8-1.9-20.6,1.2c-8.8,5.6-14.2,12.7-14.1,24.2s10.8,19.5,10.8,19.5l0.6,0.5
		c-1.7-0.7-3.3-1.6-4.9-2.7c-11.2-8.6-13.4-24.6-4.8-35.9C338.1,54.1,352.2,51.2,363.3,57.5L363.3,57.5z"/>
	<path class="st11" d="M370.8,93.9c-6.9,9.7-19.6,13.4-30.6,8.9l-0.2-0.1c-0.8-0.3-1.6-0.7-2.3-1.2l28.1-42.4
		C376.4,67.7,378.6,82.9,370.8,93.9z"/>
</g>
<g id="freepik--Character--inject-27">
	<path class="st0" d="M357.6,421.6c-10.8,13-23.7,24.2-38.2,33c-4.5,2.7-9.2,5.1-14,7.3c-33.1,14.9-70.7,15.8-106,7.3
		c-74.1-18-113.4-83.3-118.4-155.9c-1.3-19.6-4.3-40.8,3.6-59.5s24-30.3,42.2-38.3c13.2-5.9,27.4-9.8,40.4-13
		c23.4-5.8,48.2-3.2,69.9,7.2c15.2,7.2,26.1,19.8,38.9,30.4c1.4,1.1,2.7,2.2,4.1,3.3c12.9,10.4,26.5,20,40.7,28.6
		c21.5,13.1,43.6,25.5,57.3,47.6C400.2,354.7,381.7,393,357.6,421.6z"/>
	<path class="st8" d="M357.6,421.6c-10.8,13-23.7,24.2-38.2,33c-4.5,2.7-9.2,5.1-14,7.3c-33.1,14.9-70.7,15.8-106,7.3
		c-74.1-18-113.4-83.3-118.4-155.9c-1.3-19.6-4.3-40.8,3.6-59.5s24-30.3,42.2-38.3c13.2-5.9,27.4-9.8,40.4-13
		c23.4-5.8,48.2-3.2,69.9,7.2c15.2,7.2,26.1,19.8,38.9,30.4c1.4,1.1,2.7,2.2,4.1,3.3c12.9,10.4,26.5,20,40.7,28.6
		c21.5,13.1,43.6,25.5,57.3,47.6C400.2,354.7,381.7,393,357.6,421.6z"/>
	<path class="st9" d="M280.1,243.3c-1.4-1.1-2.7-2.2-4.1-3.4c-12.8-10.6-23.7-23.1-38.9-30.3c-21.8-10.4-46.5-13-69.9-7.2
		c-30.8,7.6-69,19.4-82.6,51.4c-7.9,18.6-4.9,39.8-3.6,59.5c5,72.6,44.4,138,118.4,155.9c40.3,9.8,83.8,7.1,119.9-14.6
		c14.5-8.8,27.4-20,38.2-33c24.1-28.6,42.6-66.9,20.7-102.1c-13.8-22.1-35.8-34.5-57.3-47.6C306.7,263.3,293.1,253.7,280.1,243.3z"
		/>
	<path class="st3" d="M167.9,372.8c-6.2,1.9-12.2,4.3-17.9,7.2"/>
	<path class="st3" d="M205.7,365.6c-9,0.8-18,2.2-26.8,4.2"/>
	<path class="st3" d="M197.8,363.7c0,0-34.8-20.2-76.7-4"/>
	<path class="st11" d="M357.6,421.6c-10.8,13-23.7,24.2-38.2,33c-4.5,2.7-9.2,5.1-14,7.3c-3.8-1.2-7.5-2.5-11.1-4.1
		c-21.7-9.3-39.9-25.1-57.7-40.6c-10.7-9.3-21.7-18.8-34.5-25c-17.4-8.2-37.2-9.8-55.7-4.6c9.6-10.8,22.6-18,36.8-20.3
		c-9.2-8.4-22-11.9-34.4-12.1s-19.3,1.3-31.4,4c4.1-7.5,14.8-14.2,23.3-14c-8.1-0.1-16.2-0.7-24.2-1.7c-11-1.8-15.9-14.7-17.5-25.7
		c-4.5-30.3,0.1-62.5,16.6-88.2c3.3-5.1,7.1-9.9,11.3-14.3c13.2-5.9,27.4-9.8,40.4-13c23.4-5.8,48.2-3.2,69.9,7.2
		c15.2,7.2,26.1,19.8,38.9,30.4c1.4,1.1,2.7,2.2,4.1,3.3c12.9,10.4,26.5,20,40.7,28.6c21.5,13.1,43.6,25.5,57.3,47.6
		C400.2,354.7,381.7,393,357.6,421.6z"/>
	<path class="st2" d="M369.7,420.7c6.5,5.4,13.3,10.5,20.4,15.1c13.8,0.9,7.6,17.7,7.6,17.7l-11.8,7.6c0,0-20.3-16.1-31.4-21.3
		C343.5,434.5,369.7,420.7,369.7,420.7z"/>
	<path class="st10" d="M271.4,244.7c0,0-1.9-18.8-4.9-24l-45.9-9.4v-3.6c0,0,1.1-6.2-9.2-10.1c-10.2-3.9-31.6,1.2-37.1,5.3
		c-5.5,4.2-3.5,11.3-3.5,11.3s-18.5,9.3-26.8,12.9c-6.8,3.1-13.4,6.6-19.9,10.5c0,0-3.8,43.1-3,53.2c0.7,10-0.6,19.4,0.3,25
		c0.9,5.5,1.5,8.7,7.4,13.4c5.8,4.7,11.1,11.6,26.4,4.8l-2.1-1.7l100.4-33.8L271.4,244.7z"/>
	<path class="st0" d="M271.4,244.7c0,0-1.9-18.8-4.9-24l-45.9-9.4v-3.6c0,0,1.1-6.2-9.2-10.1c-10.2-3.9-31.6,1.2-37.1,5.3
		c-5.5,4.2-3.5,11.3-3.5,11.3s-18.5,9.3-26.8,12.9c-6.8,3.1-13.4,6.6-19.9,10.5c0,0-3.8,43.1-3,53.2c0.7,10-0.6,19.4,0.3,25
		c0.9,5.5,1.5,8.7,7.4,13.4c5.8,4.7,11.1,11.6,26.4,4.8l-2.1-1.7l100.4-33.8L271.4,244.7z"/>
	<path class="st12" d="M271.4,244.7c0,0-1.9-18.8-4.9-24l-45.9-9.4v-3.6c0,0,1.1-6.2-9.2-10.1c-10.2-3.9-31.6,1.2-37.1,5.3
		c-5.5,4.2-3.5,11.3-3.5,11.3s-18.5,9.3-26.8,12.9c-6.8,3.1-13.4,6.6-19.9,10.5c0,0-3.8,43.1-3,53.2c0.7,10-0.6,19.4,0.3,25
		c0.9,5.5,1.5,8.7,7.4,13.4c5.8,4.7,11.1,11.6,26.4,4.8l-2.1-1.7l100.4-33.8L271.4,244.7z"/>
	<path class="st11" d="M267.1,222.9h-19.2c-3.7,0-6.9,2.7-7.5,6.4l-9.5,57c0,0-13,1.1-22.3,7.8c-9.2,6.7-32-41.3-67.9-41.4
		c0,0,10.3,23.6,12.6,42.5c0,0-22.4-2.4-26.2,6.3s1.7,25.2,11.2,18.9c9.5-6.4,18.4-17,24.8-10.3c6.3,6.7,34.7,10.3,34.7,10.3
		l43.6-22l16.9-7.9L267.1,222.9z"/>
	<path class="st8" d="M206.1,194.7c0,0,10.9,3,12.7,6.7c1.8,3.7,1.6,12.9,1.6,12.9c-2.6,6.2-6.7,11.7-11.7,16.1l-8.1-16.1l0.7,18.3
		c0,0-15.5-2.6-22-7.5l-6.6-4.9c0,0-2.8-9.3-2.4-12.5c0.4-3.2,12.2-9.6,12.2-9.6L206.1,194.7z"/>
	<path class="st0" d="M387.9,477c-0.3-0.7,4.5-9.1,0.7-17.7c-3.7-8.6-9.7-5.3-9.7-5.3s-17-10.8-24.1-14.2
		c-5.1-2.6-10.1-5.5-14.8-8.8l-7.6,10.2l7,21.6L387.9,477z"/>
	<path class="st0" d="M378.3,453.5l21.8,13.3c0,0,15.3-9.8,22.7-16.6c7.3-6.8,23.8-21.3,23.8-21.3l10.5-14.1c0,0-7.3-9-19.4-1.8
		c-15.6,9.3-34.7,22.8-47.4,22.7C390.2,435.8,392.7,451.4,378.3,453.5"/>
	<path class="st2" d="M202.4,138.2c0,0,9.9,15,11.7,19.8s3.3,12,2.9,15.5s-4,22-5.8,22.5l-1.8,2l1.2,7.8c0,0-7.7,13.4-30.5,3.6
		c0,0-0.9-15.6-3.7-20.5c-2.8-4.9-6.9,0.9-11.1-13.3c-4.2-14.2,9.1-29.1,9.1-29.1L202.4,138.2z"/>
	<path class="st1" d="M447.5,410.5c0,0-11.2,2-14.9,8.6c-3.6,6.6-10.6,19-13,25s-22.1,20.4-22.1,20.4l2.6,2.4
		c0,0,16.1-9.9,25.7-19.4s31.1-33.2,31.1-33.2S455.4,412.8,447.5,410.5z"/>
	<path class="st1" d="M335.1,437.4l-2.8,3.7l8.5,17.7l47,16.9l2.2-6.9c0,0,0.7-7-15.8-12.3c-16.5-5.3-26.5-8.8-31.2-12.4
		S335.1,437.4,335.1,437.4z"/>
	<path class="st2" d="M180.1,305.9c0,0-14.4-2.2-21.1,9.6c-6.7,11.8-6,16.9-6,16.9s9.5,8.6,22.6,8.1c13.1-0.5,32.1-15.5,38.3-20.3
		c6.2-4.9,21.8-18.8,32.5-15.9l1.2-10.1c0,0-1-4.5-10.2-3.3c-9.1,1.2-12.7,6.4-15.6,6.4s-5.7-2.8-11.6,7.3
		C210,304.5,189.3,308.2,180.1,305.9z"/>
	<path class="st3" d="M198.7,159.8c0.3,1.9,0.7,3.7,1.3,5.6c0.2,0.9,0.6,1.7,1.2,2.5c1.1,1.2,2.9,1.5,4.5,1.7c0.3,0,0.5,0.1,0.7,0.3
		c0.1,0.2,0.2,0.5,0.2,0.7c0,1.8-0.6,3.6-1.6,5.1"/>
	<path class="st11" d="M344.8,425.4l-9.6,12c0,0,10.6,9.8,21.5,13.4c11,3.6,30.1,10.5,33.4,15.7l-1.2-6.3c0,0-30-18.4-36.9-22.8
		C347.8,434.8,345.1,430.3,344.8,425.4z"/>
	<path class="st11" d="M378.3,453.5l19.2,10.9c0,0,9.5-6.5,14.1-11.3c4.7-4.8,10.4-10.1,14-20.8c4.9-14.8,18.8-21.9,18.8-21.9
		s-19.4,9.1-29.5,16.3s-20,10.2-25.7,9.7C389.1,436.5,393.7,451,378.3,453.5z"/>
	<path class="st13" d="M192,178.3c0,0,7.6,5.9,15.4,3.7C207.4,182,200,196.7,192,178.3z"/>
	<path class="st4" d="M191.7,165.5c0.2,1.6-0.3,3-1.1,3.2c-0.8,0.1-1.7-1.2-1.9-2.8s0.3-3,1.1-3.2
		C190.6,162.6,191.5,163.9,191.7,165.5z"/>
	<path class="st4" d="M208.1,162.6c0.2,1.6-0.3,3-1.1,3.2c-0.8,0.1-1.7-1.2-1.9-2.7s0.3-3,1.1-3.2
		C207.1,159.7,207.9,160.9,208.1,162.6z"/>
	<path class="st3" d="M190.5,158.6c0,0-4.4-2.3-7.5,2.6"/>
	<path class="st3" d="M201.8,155.6c0,0,4.7-4,7.3,0"/>
	<path class="st3" d="M175.6,173.6c0,0-2.8-4.2-5.8-4c-3,0.1-4.2,4.3-3.1,8.4s5.5,9.7,8.9,9.2c1.9-0.2,3.6-1.2,4.9-2.7"/>
	<path class="st3" d="M202.7,141.6c3.2,2.6,6.5,5.5,8.1,9.4c1.4,3.3,1.7,7,3,10.3c1.4,3.6,2.9,7.3,3,11.2c-0.1,3.6-0.5,7.2-1.4,10.7
		c-0.5,3-1.2,6-2.2,8.9c-1.6,4.2-4.5,6.7-8.4,8.7c-2.8,1.4-7.5,3.5-10.6,1.6c-1.8-1.2-4.5-4.5-6.7-7.6"/>
	<path class="st3" d="M175.6,187.1c0,0,5,12.3,3.8,20.9"/>
	<path class="st4" d="M174.3,171.5c1.4-1,2.1-2.6,1.9-4.3c-0.2-1.9-1.5-3.6-1.2-5.5c0.2-0.9,0.6-1.8,1-2.6c1.4-3.2,1.1-6.8-0.6-9.8
		c0,0,15.9,0.7,23.3-4c7.4-4.7,13.1-16.8,8.6-22.6c-4.5-5.8-13.3,2.1-19.8,3c-6.5,0.9-29.6,4.6-33.3,13.5
		c-3.7,8.9,1.9,12.1,2.1,20.6c0.2,8.5,0.2,24.6,12.9,23.1c0,0-4.8-6.2-1.5-12.5C170.1,167.7,174.3,171.5,174.3,171.5z"/>
	<path class="st4" d="M205.5,132.7c4.4,3.4,7.1,8.5,7.6,14c0.7,6.4,12,18.8,3.9,25.8c0,0-1.9-7.5-3-11.2c-1.1-3.7-2.5-10.5-4.4-12.8
		c-1.9-2.3-11.8-10.5-11.8-10.5L205.5,132.7z"/>
	<path class="st3" d="M177.1,207.7c0,0,7.8,5.2,22.4,5.4l1.7,19.5c0,0-16.4-1.2-28.6-12.4c0,0-3.3-8.7-2.4-12.5s8.7-7.5,8.7-7.5"/>
	<path class="st3" d="M210,198.9l0.5,7c-3.1,3.2-6.8,5.6-11,7.2l9.1,17.4c0,0,10.9-8.5,12-17.4c0,0,0.1-9.1-1.8-11.7
		c-1.9-2.6-8.8-3.8-8.8-3.8"/>
	<path class="st14" d="M165.9,145c1.2-2.9,4.4-4.7,7.5-5.1s6.3-0.1,9.4-0.2c4.3,0,8.6-1.2,12.3-3.5c3.7-2.3,6.4-5.9,7.4-10.2"/>
	<path class="st14" d="M158.4,144.4c2-6,8.3-9.7,14.6-10.2c3.1-0.3,6.2,0.1,9.3-0.3c3.1-0.4,6.3-1.6,7.9-4.3"/>
	<path class="st3" d="M155.1,334.1c-15.1,7.8-20.5-0.2-28.9-6.9c-8.4-6.7-2.9-18.6-4.7-37.8s2.6-51.7,2.6-51.7s3.8-0.9,14.2-7.3
		c10.5-6.4,32.5-16.1,32.5-16.1"/>
	<path class="st3" d="M170,305.1c0,0-2.4-7.6-9.2-7.8c-6.8-0.2-17.5,2.9-25.1,17.2"/>
	<path class="st3" d="M159.3,296.8c-0.4,0-0.8-0.1-1.2-0.3c-5.6-2-11.6-2.3-17.4-0.8"/>
	<path class="st3" d="M136.8,248.1c12.3,13.6,18.3,31.6,24,49.1"/>
	<path class="st3" d="M220.6,211.3c0,0,22.3,5.3,33.3,6.6c10.9,1.3,12.7,2.8,12.7,2.8l2,7.6"/>
	<polygon class="st2" points="324.7,224.5 248.6,227.4 242.4,305.7 255.4,305.7 321.5,290.9 329.8,226.4 	"/>
	<polygon class="st0" points="246.3,308 329.5,228.2 321.5,290.9 	"/>
	<polygon class="st15" points="246.3,308 329.5,228.2 321.5,290.9 	"/>
	<polygon class="st3" points="246.3,305.9 253,230.4 329.8,226.4 321.5,290.9 	"/>
	<path class="st4" d="M297.4,263c-0.5,4.6-3,8.1-5.5,7.8c-2.5-0.3-4.1-4.2-3.6-8.8c0.5-4.6,3-8.1,5.5-7.8
		C296.3,254.4,297.9,258.4,297.4,263z"/>
	<path class="st4" d="M321.5,290.9c0,0,35.2-1,46.2,6.3c11,7.3,17.5,43.7,15.9,63c-1.5,19.3-14.8,63.7-14.8,63.7l-25.4-28.8
		c0,0-12.5-45.5-5.7-63.3c0,0-33.7,1.9-47-2.3c0,0-11.9-19.5-32.3-25.9L321.5,290.9z"/>
	<path class="st9" d="M374.1,424.6c-9-8.4-17.1-17.8-24.2-27.9c-12.3-19-29.3-37.2-46.8-51.5c-14.1-11.4-17.3-30-34.7-39.4
		c-28.8-15.4-53.7,15.2-63,21.5c-9.3,6.2-25.4,13.3-25.4,13.3s5.9,22.1,23.2,24.7s34.8-9.3,43.1-3.5s14.4,31.5,41.7,46.5
		c22.3,12.3,52.8,24.3,68.4,32.4c3.5,1.8,6.1,3.7,8.1,4.8c5.4,3,11.2,6.4,16.7,9.9l18.8,11.5c0,0,18.9-11.2,26.2-21.5
		c1-1.4,3-5.1,4.9-8.6c4.1-7.8,9.3-14.8,16.5-18.6c5-2.7,9.4-3.5,9.3-3.8c-0.5-0.9-9.5-5.5-15.6-3c-13,5.4-38.9,26-51.2,24.4
		C384.4,432.7,379,428.9,374.1,424.6z"/>
	<path class="st4" d="M374.1,424.6c-11.3,4.6-15.9,11.6-17.6,16.1c-15.7-8.1-46.1-20.1-68.4-32.4c-27.3-15.1-33.4-40.8-41.7-46.5
		s-25.8,6.2-43.1,3.5s-23.2-24.7-23.2-24.7s16.1-7,25.4-13.2s30.8-36.9,63-21.5c17.8,8.5,20.6,27.9,34.7,39.4
		c17.5,14.2,34.5,32.5,46.8,51.5C357,406.9,365.1,416.2,374.1,424.6z"/>
	<path class="st16" d="M289,326c0,0-8.7-17.7-22.7-21.1"/>
	<path class="st3" d="M243.4,290.7c-9.6-2.1-20.2,8.5-24.6,6.5c-3.3-1.5-8.7,7.3-8.7,7.3c-8.9,1.3-18,1.7-27,1.4
		c-12.9-0.8-19.1,1.7-23.7,8.6l-6.4,17c0,0,16.9,15.1,34.9,6.3s42-35.4,58.5-35.3"/>
	<path class="st9" d="M377.5,453.1c0,0,15.8,1.3,12.1-17.6"/>
	<path class="st4" d="M451.9,423.9c-1.2,2.3-15.6,14.6-28.1,25.4c0-0.2,3.5-6.7,4.9-9.5c3.3-6.2,11.9-23.2,28.2-25.4
		C459.2,415.7,451.9,423.9,451.9,423.9z"/>
	<path class="st9" d="M445.7,410.6c-16.5,3.3-20.2,24.4-26.1,33.4c-5.9,9-22.1,21.2-22.1,21.2"/>
	<path class="st9" d="M388.6,459.9c2.7,4.9,1.4,10.6,0,14.2c-0.7,1.8-1.6,3.5-2.6,5.1c-23.3-3.8-46.7-16.4-46.7-16.4l-6-18.6l-1-3
		l9.1-12.2"/>
	<path class="st4" d="M388.6,474.1c-0.7,1.8-1.6,3.5-2.6,5.1c-23.3-3.8-46.7-16.4-46.7-16.4l-6-18.6c3,3.9,8.6,9.7,17,12.1
		C361.7,459.4,382.6,463.2,388.6,474.1z"/>
	<polyline class="st3" points="242.4,303 248.6,227.4 324.7,224.5 329.8,226.4 	"/>
	<path class="st9" d="M389.5,444.1c0,0,10.4,1.9,18.4-4.7c8-6.5,20.9-21.3,20.9-21.3"/>
	<path class="st3" d="M400.1,434.7c0,0-2.5,3.8,0,11.4"/>
	<path class="st3" d="M407.5,431.1c-1.1,3.8-0.8,7.8,0.9,11.4"/>
	<path class="st3" d="M416.3,426c0,0-2.1,6.3,0,11.9"/>
	<path class="st9" d="M343.5,427.4l-8.3,10c0,0,8.4,9.2,20.3,13c11.9,3.8,33,10.3,34.8,17.2"/>
</g>
</svg>
